<svg xmlns="http://www.w3.org/2000/svg" width="380" height="190.493" viewBox="0 0 380 190.493"><defs><style>.a{fill:#f0f0f0;}.b{fill:#2f2e41;}.c{fill:#ffb6b6;}.d{fill:#e6e6e6;}.e{fill:#6ebccc;}.f{fill:#3f3d56;}.g{fill:#fff;}</style></defs><g transform="translate(-0.005)"><path class="a" d="M278.021,429.182q-17.2,0-34.347-.616c-16.335-.587-33.226-1.193-48.926-9.9-10.983-6.091-20.709-15.863-28.129-28.26a95.089,95.089,0,0,1-10.78-27.028,111.112,111.112,0,0,1,.4-52.6,93.417,93.417,0,0,1,6.264-17.168c11.449-23.709,32.331-39.624,57.293-43.664a2.893,2.893,0,0,1,.622-.013c.112.006.224.012.338.008l.147-.047a7.176,7.176,0,0,1,1.156-.3c38.5-5.731,79.194,5.865,117.688,33.534,29.764,21.4,69.209,32.918,120.59,35.223l.729.038c14.3.822,28.139,6.719,40.012,17.054a86.678,86.678,0,0,1,25.447,39.36c.606,1.9,1.161,3.869,1.651,5.865a11.065,11.065,0,0,1-2.95,10.492v0l-.128.132c-.308.306-.632.6-.964.874l-.39.321a55.257,55.257,0,0,1-8.981,6.5,27.612,27.612,0,0,1-6.552,2.474c-12.521,3.053-25.236,5.883-37.792,8.412-24.385,4.917-49.412,8.973-74.387,12.055a964.2,964.2,0,0,1-118.017,7.247ZM220.13,250.774a1.488,1.488,0,0,0-.229.016c-24.728,4-45.413,19.761-56.748,43.235a92.477,92.477,0,0,0-6.2,17,110.139,110.139,0,0,0-.4,52.132,94.176,94.176,0,0,0,10.676,26.77c7.347,12.276,16.974,21.95,27.841,27.976,15.559,8.63,32.37,9.233,48.628,9.817a963.053,963.053,0,0,0,152.262-6.627c24.959-3.08,49.97-7.133,74.339-12.047,12.548-2.528,25.254-5.356,37.767-8.407a26.923,26.923,0,0,0,6.394-2.413,54.72,54.72,0,0,0,8.862-6.421l.39-.321c.285-.235.565-.487.832-.748l.077-.081a10.183,10.183,0,0,0,2.851-9.75h0c-.484-1.974-1.034-3.927-1.633-5.8-10.067-31.763-36.109-54.209-64.8-55.857l-.726-.038c-23.47-1.053-44.008-3.971-62.786-8.92-22.415-5.908-41.985-14.8-58.164-26.432-38.347-27.563-78.874-39.115-117.2-33.411a6.574,6.574,0,0,0-1.053.273l-.265.074a3.982,3.982,0,0,1-.451-.005C220.3,250.778,220.214,250.774,220.13,250.774Z" transform="translate(-152.875 -238.69)"/><path class="b" d="M396.107,334c-1.062-1.018-2.147-6.7-3.5-7.274,1.013,2.239.277,2.832.272,5.289a16.626,16.626,0,0,1-.485,4.141H369.435V318.236a12.258,12.258,0,0,1,12.259-12.259,7.315,7.315,0,0,1,1.817.266,11.655,11.655,0,0,1,8.223,8.245C393.484,320.886,396.267,331.534,396.107,334Z" transform="translate(-277.408 -271.932)"/><path class="c" d="M359.926,404.884l.011-13.965-8.209.733,2.9,8.807L353.269,422.6a3.473,3.473,0,1,0,4.2,2.927Z" transform="translate(-266.551 -320.779)"/><path class="c" d="M257.745,415.449h3.316l1.578-12.792h-4.895Z" transform="translate(-148.216 -231.552)"/><path class="b" d="M407.084,654.346l5.243-.313v2.246l4.984,3.442a1.4,1.4,0,0,1-.8,2.558h-6.241l-1.076-2.222-.42,2.222h-2.353Z" transform="translate(-298.678 -472.085)"/><path class="c" d="M212.619,415.449h3.317l1.577-12.792h-4.894Z" transform="translate(-122.266 -231.552)"/><path class="b" d="M361.958,654.346l5.243-.313v2.246l4.984,3.442a1.4,1.4,0,0,1-.8,2.558h-6.242l-1.076-2.222-.42,2.222H361.3Z" transform="translate(-272.728 -472.085)"/><path class="d" d="M373.593,355.43l-6.87.135-4.849,5.119-3.888.57a7.762,7.762,0,0,0-6.619,7.18h0l.674,3.7h4.041l2.338,13.727c-.909,2.316-.971,4.145.9,4.863l5.792,10.911,17.108-7.678a4.106,4.106,0,0,0,.259-4.447L383.7,368.5h4.112c0-3.93-1.329-7.243-5.235-7.681a46.166,46.166,0,0,0-4.67-.267Z" transform="translate(-267.017 -300.37)"/><path class="b" d="M378.967,441.719s-16.7,2.964-22.9-3.233c0,0-.629,1.068-1.577,2.839-.273.509-.8.854-1.117,1.471-.289.561-1.032,1.25-1.347,1.886-.253.512.153,1.18-.11,1.733-3.173,6.656-6.881,16.045-6.086,22.245.513,4,1.571,13.3,2.686,23.294.087.781-.618,1.784-.531,2.571.083.742.958,1.268,1.041,2.012.055.494-.557,1-.5,1.491.06.541.786,1.072.846,1.611,1.527,13.8,2.926,26.678,2.926,26.678h7.813l1.474-29.419-1.2-10.724,2.829-21.688,3.907,20.61.5,11.6,4.128,30.16h7.223v-29.2l.539-1.517-.539-1.945.539-2.1-.539-2.283Z" transform="translate(-263.77 -348.132)"/><path class="c" d="M389.675,329.178a7.787,7.787,0,1,1,1.349-6.508c.022.093.041.186.06.283A7.777,7.777,0,0,1,389.675,329.178Z" transform="translate(-280.99 -278.102)"/><path class="b" d="M387.75,324.033a4.094,4.094,0,0,0-1.2-2.169,5.584,5.584,0,0,1-.323,2.341,10.791,10.791,0,0,1-5.93-1.175c-1.374-.932-3.123-.851-5.159,0a7.543,7.543,0,0,1,7.545-7.544h1.346a7.545,7.545,0,0,1,7.544,7.542,22.458,22.458,0,0,1-3.826,1Z" transform="translate(-280.689 -277.401)"/><circle class="a" cx="21.672" cy="21.672" r="21.672" transform="translate(26.455 99.436)"/><circle class="a" cx="21.672" cy="21.672" r="21.672" transform="translate(164.56)"/><circle class="a" cx="21.672" cy="21.672" r="21.672" transform="translate(336.661 102.835)"/><path class="e" d="M646.787,277.174v49.143a3.875,3.875,0,0,1-3.835,3.875l-.042,0h-5.72a17.255,17.255,0,0,1-17.255-17.255V277.174a3.877,3.877,0,0,1,3.877-3.877h2.318c-1.074,3.132,13.5,4.451,14.3,0h2.482a3.877,3.877,0,0,1,3.877,3.877Z" transform="translate(-421.46 -253.139)"/><path class="f" d="M643.182,263.962a.509.509,0,0,1,.508-.508h3.455a.508.508,0,0,1,0,1.016H643.69a.509.509,0,0,1-.508-.508Z" transform="translate(-434.829 -247.479)"/><path class="f" d="M637.913,327.991H616.064a6.4,6.4,0,0,1-6.394-6.394V287.245a.929.929,0,0,1-.387-.756v-3.455a.929.929,0,0,1,.387-.756v-.927a.929.929,0,0,1-.387-.756v-3.455a.929.929,0,0,1,.387-.756v-1.676a.928.928,0,0,1-.489-.82v-3.455a.928.928,0,0,1,.489-.82v-4.592a6.4,6.4,0,0,1,6.394-6.394h21.849a6.4,6.4,0,0,1,6.393,6.394v10.01a.8.8,0,0,1,.376.679V282.3a.8.8,0,0,1-.376.679V321.6A6.4,6.4,0,0,1,637.913,327.991Zm-21.849-68.513a5.55,5.55,0,0,0-5.544,5.544v5.315l-.409.016a.083.083,0,0,0-.08.082v3.455a.083.083,0,0,0,.08.082l.409.016v3l-.323.08a.084.084,0,0,0-.064.079V280.6a.084.084,0,0,0,.064.079l.323.08v2.121l-.323.08a.083.083,0,0,0-.064.079v3.455a.084.084,0,0,0,.064.079l.323.08V321.6a5.55,5.55,0,0,0,5.544,5.544h21.849a5.55,5.55,0,0,0,5.544-5.544V282.25h.376v-6.491h-.376V265.022a5.55,5.55,0,0,0-5.544-5.544Z" transform="translate(-415.276 -244.703)"/><circle class="f" cx="0.508" cy="0.508" r="0.508" transform="translate(213.739 15.976)"/><path class="g" d="M315.9,450.529H259.045A3.055,3.055,0,0,1,256,447.482v-27.7a3.055,3.055,0,0,1,3.046-3.047H315.9a3.055,3.055,0,0,1,3.047,3.046v27.7a3.055,3.055,0,0,1-3.046,3.047Z" transform="translate(-212.174 -335.624)"/><path class="f" d="M315.9,450.529H259.045A3.055,3.055,0,0,1,256,447.482v-27.7a3.055,3.055,0,0,1,3.046-3.047H315.9a3.055,3.055,0,0,1,3.047,3.046v27.7a3.055,3.055,0,0,1-3.046,3.047Zm-56.852-32.945a2.2,2.2,0,0,0-2.2,2.2v27.7a2.2,2.2,0,0,0,2.2,2.2H315.9a2.2,2.2,0,0,0,2.2-2.2v-27.7a2.2,2.2,0,0,0-2.2-2.2Z" transform="translate(-212.174 -335.624)"/><path class="e" d="M297.418,451.342c-11.212,0-22.9-.107-27.266-.177A2.2,2.2,0,0,1,268,448.975V426.044a.777.777,0,0,1,.775-.777h51.2a.777.777,0,0,1,.776.775V441.6a9.706,9.706,0,0,1-9.543,9.668C307.136,451.321,302.322,451.342,297.418,451.342Z" transform="translate(-219.075 -340.531)"/><path class="f" d="M310.918,435.267H264.659a1.886,1.886,0,0,1-1.77-1.247l-5.236-14.689a1.879,1.879,0,0,1,1.767-2.51l57.822-.081a1.88,1.88,0,0,1,1.852,2.209l.045.019-.166.387,0,0-6.329,14.769a1.874,1.874,0,0,1-1.725,1.139Zm6.328-17.677-57.824.081a1.029,1.029,0,0,0-.968,1.375l5.236,14.688a1.034,1.034,0,0,0,.97.684h46.258a1.026,1.026,0,0,0,.944-.623l6.33-14.769.311.133-.311-.133a1.029,1.029,0,0,0-.946-1.434Z" transform="translate(-213.064 -335.628)"/><circle class="g" cx="3.622" cy="3.622" r="3.622" transform="translate(71.588 95.593)"/><circle class="g" cx="3.622" cy="3.622" r="3.622" transform="translate(208.418 64.147)"/><path class="f" d="M946.755,494.062l-9.676-9.553a5.05,5.05,0,0,0-3.582-1.47h-.034a5.063,5.063,0,0,0-3.6,1.513,11.9,11.9,0,0,0-.208,16.5c.1.111.208.217.314.323a11.575,11.575,0,0,0,1.938,1.551,11.761,11.761,0,0,0,6.421,1.882h.072a11.824,11.824,0,0,0,8.393-3.536A5.109,5.109,0,0,0,946.755,494.062Zm-.561,6.616a11.087,11.087,0,0,1-13.921,1.479,11.378,11.378,0,0,1-1.7-1.381,11.049,11.049,0,0,1-.1-15.625,4.212,4.212,0,0,1,3-1.262h.026a4.211,4.211,0,0,1,2.983,1.224l9.676,9.557a4.252,4.252,0,0,1,.038,6.009Z" transform="translate(-597.716 -373.753)"/><path class="f" d="M872.05,420.276l-9.676-9.557a5.068,5.068,0,0,0-3.582-1.47h-.03a5.077,5.077,0,0,0-3.6,1.517,11.931,11.931,0,0,0-2.006,14.023l0,0a11.71,11.71,0,0,0,1.84,2.52c.081.094.174.187.268.28a11.829,11.829,0,0,0,8.359,3.433h.077a11.837,11.837,0,0,0,8.393-3.54,5.1,5.1,0,0,0-.047-7.211Zm-.561,6.616a10.987,10.987,0,0,1-7.789,3.285h-.072a11.049,11.049,0,0,1-7.857-18.812,4.253,4.253,0,0,1,6.009-.038l9.676,9.553a4.258,4.258,0,0,1,.034,6.013Z" transform="translate(-554.758 -331.319)"/><path class="e" d="M950.535,500.345l-10.667-10.536a3.708,3.708,0,0,0-5.238.032,9.349,9.349,0,0,0,13.3,13.139Z" transform="translate(-600.877 -377.033)"/><path class="e" d="M875.829,426.56l-10.667-10.536a3.708,3.708,0,0,0-5.238.033,9.349,9.349,0,0,0,13.3,13.139Z" transform="translate(-557.917 -334.602)"/><path class="f" d="M893.431,478.4l-.255.671q-1.8-.682-3.484-1.368C869.77,469.573,860.26,460.059,853.9,442l0,0q-.453-1.275-.88-2.609l.671-.217a10.855,10.855,0,0,0,.977,2.456q.523,1.485,1.075,2.894c5.979,15.243,14.8,23.954,31.7,31.31q1.275.555,2.613,1.1A11.086,11.086,0,0,0,893.431,478.4Z" transform="translate(-555.495 -348.525)"/><rect class="f" width="0.85" height="31.021" transform="translate(306.842 99.538) rotate(-45.355)"/><path class="c" d="M411.564,397.275l.011-13.965-8.209.734,2.9,8.807-10.516,15.941a3.473,3.473,0,1,0,4.2,2.927Z" transform="translate(-290.979 -316.403)"/></g></svg>