<svg xmlns="http://www.w3.org/2000/svg" width="35.333" height="35.333" viewBox="0 0 35.333 35.333"><defs><style>.a{fill:#161614;}</style></defs><path class="a" d="M17.667,0A17.9,17.9,0,0,0,0,18.114,18.083,18.083,0,0,0,12.082,35.3c.883.168,1.207-.393,1.207-.871,0-.432-.016-1.859-.024-3.372-4.915,1.1-5.952-2.137-5.952-2.137a4.766,4.766,0,0,0-1.962-2.65c-1.6-1.124.121-1.1.121-1.1A3.725,3.725,0,0,1,8.18,27.036a3.709,3.709,0,0,0,5.141,1.506,3.9,3.9,0,0,1,1.122-2.422c-3.924-.458-8.049-2.011-8.049-8.952a7.109,7.109,0,0,1,1.82-4.862,6.662,6.662,0,0,1,.171-4.794s1.484-.487,4.86,1.857a16.359,16.359,0,0,1,8.848,0c3.372-2.344,4.854-1.857,4.854-1.857a6.653,6.653,0,0,1,.173,4.794,7.1,7.1,0,0,1,1.818,4.862c0,6.957-4.133,8.489-8.067,8.938a4.389,4.389,0,0,1,1.2,3.354c0,2.424-.02,4.374-.02,4.971,0,.482.318,1.047,1.213.869A18.082,18.082,0,0,0,35.333,18.114,17.894,17.894,0,0,0,17.667,0ZM6.617,25.8a.22.22,0,0,1-.3.055c-.128-.059-.2-.182-.159-.272s.176-.119.3-.056S6.661,25.713,6.617,25.8Zm.869.8c-.084.08-.249.043-.361-.084a.282.282,0,0,1-.052-.376c.087-.08.247-.043.362.084S7.574,26.518,7.486,26.6Zm.6,1.017c-.108.077-.285,0-.395-.156s-.108-.354,0-.432.284-.008.395.152A.326.326,0,0,1,8.082,27.616ZM9.09,28.794c-.1.11-.3.08-.454-.069a.354.354,0,0,1-.1-.463c.1-.11.305-.079.458.069S9.194,28.686,9.09,28.794Zm1.3.4c-.043.142-.241.206-.441.146s-.331-.228-.29-.372.241-.21.443-.145S10.435,29.047,10.393,29.192Zm1.483.169c0,.149-.165.273-.375.276s-.382-.116-.384-.263.166-.274.377-.277S11.876,29.212,11.876,29.36Zm1.457-.057c.025.146-.121.3-.329.335s-.395-.052-.421-.2.123-.3.328-.338S13.307,29.155,13.333,29.3Z"/></svg>