<svg xmlns="http://www.w3.org/2000/svg" width="47.099" height="35.333" viewBox="0 0 47.099 35.333"><defs><style>.a{fill:#4285f4;}.b{fill:#34a853;}.c{fill:#fbbc04;}.d{fill:#ea4335;}.e{fill:#c5221f;}</style></defs><path class="a" d="M55.234,85.409h7.546V67.084L52,59V82.176a3.233,3.233,0,0,0,3.234,3.234" transform="translate(-52 -50.076)"/><path class="b" d="M120,85.409h7.546a3.233,3.233,0,0,0,3.234-3.234V59L120,67.084" transform="translate(-83.68 -50.076)"/><path class="c" d="M120,45.226V59.239l10.779-8.084V46.843a4.85,4.85,0,0,0-7.761-3.881" transform="translate(-83.68 -41.983)"/><path class="d" d="M72,62.013V48l12.77,9.7L97.54,48V62.013l-12.77,9.7" transform="translate(-61.221 -44.757)"/><path class="e" d="M52,46.843v4.312l10.779,8.084V45.226l-3.018-2.264A4.85,4.85,0,0,0,52,46.843" transform="translate(-52 -41.983)"/></svg>