<svg xmlns="http://www.w3.org/2000/svg" width="253.238" height="213.667" viewBox="0 0 253.238 213.667">
  <g id="Group_14" data-name="Group 14" transform="translate(0 0.001)">
    <path id="Path_92" data-name="Path 92" d="M334.746,155.308q0,4.5-.379,8.916-.3,3.444-.814,6.827-.548,3.581-1.343,7.076v0q-.52,2.3-1.141,4.563a101.606,101.606,0,0,1-4.477,12.869q-.58,1.366-1.2,2.712a101.665,101.665,0,0,1-5.226,9.92A103.535,103.535,0,0,1,300.2,232.323q-1.273,1.132-2.581,2.226a103.124,103.124,0,1,1-1.877-160.008q1.281,1.015,2.53,2.076a103.857,103.857,0,0,1,11.341,11.225h0a102.722,102.722,0,0,1,25.128,67.465Z" transform="translate(-128.499 -52.185)" fill="#f2f2f2"/>
    <path id="Path_93" data-name="Path 93" d="M197.3,425.8c-9.824-5.847-17.238-16.774-16.276-28.165a52.672,52.672,0,0,0,33.121,14.516c4.786.283,10.139.1,13.662,3.351a11.774,11.774,0,0,1,3.38,8.048,34.969,34.969,0,0,1-1.023,8.865l.2.716C218.934,433.178,207.12,431.65,197.3,425.8Z" transform="translate(-166.855 -304.867)" fill="#e6e6e6"/>
    <path id="Path_94" data-name="Path 94" d="M180.771,397.164a45.02,45.02,0,0,0,18.712,20.423,19.386,19.386,0,0,0,5.648,2.235,11.119,11.119,0,0,0,5.834-.462,23.017,23.017,0,0,1,5.349-1.555,6.809,6.809,0,0,1,5.224,1.927,17.689,17.689,0,0,1,3.781,5.937c1.073,2.386,2.149,4.881,4.205,6.6.249.208-.088.582-.337.375-3.578-2.985-4.162-7.985-7.022-11.5a6.9,6.9,0,0,0-5.354-2.856,17.854,17.854,0,0,0-5.461,1.476,11.865,11.865,0,0,1-5.687.664,17.923,17.923,0,0,1-5.713-2.01,43.678,43.678,0,0,1-10.876-8.251,45.819,45.819,0,0,1-8.784-12.846c-.134-.294.346-.446.48-.154Z" transform="translate(-166.366 -304.405)" fill="#fff"/>
    <path id="Path_95" data-name="Path 95" d="M217.991,467.45a6.754,6.754,0,0,1-8.544,1.868c-.286-.153-.061-.6.225-.451a6.254,6.254,0,0,0,7.945-1.754C217.812,466.855,218.186,467.193,217.991,467.45Z" transform="translate(-187.612 -355.617)" fill="#fff"/>
    <path id="Path_96" data-name="Path 96" d="M278.827,457.908a13.018,13.018,0,0,0-4.533-8.335c-.248-.209.089-.583.337-.375a13.541,13.541,0,0,1,4.7,8.683c.04.322-.464.348-.5.027Z" transform="translate(-235.077 -342.536)" fill="#fff"/>
    <path id="Path_97" data-name="Path 97" d="M201.667,421.225a3.823,3.823,0,0,0,1.286-3.392c-.044-.322.46-.347.5-.027a4.284,4.284,0,0,1-1.415,3.756.26.26,0,0,1-.356.019A.253.253,0,0,1,201.667,421.225Z" transform="translate(-181.971 -319.452)" fill="#fff"/>
    <path id="Path_98" data-name="Path 98" d="M281.6,315.46c.033.2.066.4.1.6a50.353,50.353,0,0,0,2.019,7.914c.065.2.135.4.206.6a53.082,53.082,0,0,0,9.825,16.894,51.549,51.549,0,0,0,5.557,5.519c2.748,2.342,5.914,4.663,7.676,7.688a8.84,8.84,0,0,1,.5.972L300,372.721c-.036.03-.069.062-.106.093l-.268.7c-.109-.08-.22-.166-.329-.246-.063-.046-.125-.1-.188-.143-.042-.032-.083-.064-.123-.091l-.038-.03c-.039-.027-.073-.055-.109-.08q-.933-.715-1.859-1.446s0,0-.006-.007A75.793,75.793,0,0,1,284.2,358.9c-.11-.141-.224-.284-.33-.433a49.193,49.193,0,0,1-4.364-6.737,43.474,43.474,0,0,1-1.871-3.982,36.162,36.162,0,0,1-2.575-11.009c-.549-7.539,1.32-15.171,6.163-20.848C281.351,315.745,281.473,315.6,281.6,315.46Z" transform="translate(-235.636 -244.758)" fill="#e6e6e6"/>
    <path id="Path_99" data-name="Path 99" d="M296.181,315.044a45.02,45.02,0,0,0,2.645,27.573,19.386,19.386,0,0,0,3.164,5.185,11.118,11.118,0,0,0,4.936,3.143,23.016,23.016,0,0,1,5.207,1.979,6.808,6.808,0,0,1,3.011,4.684,17.69,17.69,0,0,1-.556,7.017c-.58,2.551-1.223,5.191-.614,7.8.074.316-.421.412-.495.1-1.059-4.538,1.484-8.881,1.318-13.41a6.9,6.9,0,0,0-2.555-5.5,17.855,17.855,0,0,0-5.248-2.11,11.866,11.866,0,0,1-4.941-2.894,17.922,17.922,0,0,1-3.352-5.045,43.677,43.677,0,0,1-3.716-13.136,45.819,45.819,0,0,1,.721-15.546c.07-.316.545-.147.476.166Z" transform="translate(-250.017 -244.209)" fill="#fff"/>
    <path id="Path_100" data-name="Path 100" d="M283.418,397.544a6.754,6.754,0,0,1-7.947-3.653c-.136-.294.315-.519.451-.224a6.255,6.255,0,0,0,7.4,3.383c.312-.089.406.406.1.495Z" transform="translate(-235.984 -301.861)" fill="#fff"/>
    <path id="Path_101" data-name="Path 101" d="M336.85,422.625a13.019,13.019,0,0,0,1.4-9.384c-.073-.316.422-.412.495-.1a13.541,13.541,0,0,1-1.475,9.762C337.106,423.188,336.689,422.9,336.85,422.625Z" transform="translate(-280.871 -316.068)" fill="#fff"/>
    <path id="Path_102" data-name="Path 102" d="M295.369,349.029a3.824,3.824,0,0,0,3.069-1.934c.159-.283.576,0,.418.281a4.284,4.284,0,0,1-3.391,2.147.26.26,0,0,1-.3-.2.253.253,0,0,1,.2-.3Z" transform="translate(-250.407 -267.811)" fill="#fff"/>
    <path id="Path_103" data-name="Path 103" d="M360.121,140.738l12.622,147.754-25.244,1.9V142.618C350.507,140.628,354.825,140.316,360.121,140.738Z" transform="translate(-288.687 -116.838)" fill="#ccc"/>
    <path id="Path_104" data-name="Path 104" d="M592.121,140.738,579.5,288.492l25.244,1.9V142.618C601.735,140.628,597.417,140.316,592.121,140.738Z" transform="translate(-458.383 -116.838)" fill="#ccc"/>
    <path id="Path_105" data-name="Path 105" d="M427.61,294.75H347.353A4.859,4.859,0,0,1,342.5,289.9V143.039a4.859,4.859,0,0,1,4.854-4.854H427.61a4.859,4.859,0,0,1,4.854,4.854V289.9A4.86,4.86,0,0,1,427.61,294.75ZM347.353,139.8a3.246,3.246,0,0,0-3.243,3.243V289.9a3.246,3.246,0,0,0,3.243,3.243H427.61a3.246,3.246,0,0,0,3.243-3.243V143.039a3.246,3.246,0,0,0-3.243-3.243Z" transform="translate(-285.03 -115.09)" fill="#ccc"/>
    <rect id="Rectangle_1455" data-name="Rectangle 1455" width="88.619" height="0.86" transform="translate(57.645 47.931)" fill="#ccc"/>
    <rect id="Rectangle_1456" data-name="Rectangle 1456" width="88.619" height="1.721" transform="translate(57.645 73.742)" fill="#ccc"/>
    <rect id="Rectangle_1457" data-name="Rectangle 1457" width="1.611" height="73.314" transform="translate(85.335 23.9)" fill="#ccc"/>
    <rect id="Rectangle_1458" data-name="Rectangle 1458" width="1.611" height="73.314" transform="translate(117.957 23.9)" fill="#ccc"/>
    <path id="Path_106" data-name="Path 106" d="M404.059,698.187H298.25a7.251,7.251,0,0,1,0-14.5H404.059a7.251,7.251,0,0,1,0,14.5Z" transform="translate(-247.36 -514.096)" fill="#ccc"/>
    <rect id="Rectangle_1459" data-name="Rectangle 1459" width="87.759" height="5.162" transform="translate(58.505 93.531)" fill="#ccc"/>
    <path id="Path_107" data-name="Path 107" d="M379.17,401.552l-.111-.054c-5.986-2.892-13.826-2.889-25.419.009l-.124.031-.037-.122c-1.226-4.021-2.616-8.576-.006-10.817.037-6.576,5.8-11.915,12.889-11.915s12.85,5.337,12.889,11.911c3.883,2.968,2.032,7.355-.018,10.85Z" transform="translate(-291.973 -291.004)" fill="#2f2e41"/>
    <path id="Path_108" data-name="Path 108" d="M513.8,399.147a3.718,3.718,0,0,1-5.008,2.725l-21.156,21.26-1.888-6.6,21.012-19.742a3.738,3.738,0,0,1,7.039,2.359Z" transform="translate(-389.813 -302.679)" fill="#ffb6b6"/>
    <path id="Path_109" data-name="Path 109" d="M394.459,440.223s-1.919,4.35,2.817,7.032,21.289-1.024,23.975-1.541,12.717-15.53,12.717-15.53l-1.418-7.362-13.3,11.549Z" transform="translate(-322.755 -323.288)" fill="#6ebccc"/>
    <path id="Path_110" data-name="Path 110" d="M382.146,576.907l.268,5.1s-.793,4.52-.141,5.5,18.3,1.093,18.3,1.093,1.167-6.289,2.171-11.793Z" transform="translate(-313.935 -435.919)" fill="#ffb6b6"/>
    <path id="Path_111" data-name="Path 111" d="M435.353,733.585l3.691-.746-1.056-14.908-5.447,1.1Z" transform="translate(-316.382 -525.131)" fill="#ffb6b6"/>
    <path id="Path_112" data-name="Path 112" d="M446.129,660.924l3.431-1.543-4.451-14.264-5.064,2.277Z" transform="translate(-321.871 -471.871)" fill="#ffb6b6"/>
    <path id="Path_113" data-name="Path 113" d="M428.3,625.278l-6.461,3.658-15.934-25.6a82.811,82.811,0,0,1-33.15,13.07c-3.728.664-7.529.327-8.245-3.467q-.05-.266-.08-.535c-.44-4.145,4.715-9.457,5.371-14.528l14.11-.847,1.74,2.231,16.318-10.032a7,7,0,0,1,9.64,2.437q.162.266.3.546Z" transform="translate(-301.05 -444.262)" fill="#2f2e41"/>
    <path id="Path_114" data-name="Path 114" d="M416.859,663.493l-7.393.687-13.4-27.414c-13.292,2.286-25.832,3.018-36.678.253a7.011,7.011,0,0,1-5.014-8.469q.063-.263.146-.521c1.3-3.961,4.7-6.763,7.373-11.119l19.555.3-2.184,7.536,19-2.458a7,7,0,0,1,7.793,6.176q.038.309.05.621Z" transform="translate(-293.567 -465.254)" fill="#2f2e41"/>
    <circle id="Ellipse_11" data-name="Ellipse 11" cx="7.94" cy="7.94" r="7.94" transform="translate(67.906 90.77)" fill="#ffb6b6"/>
    <path id="Path_115" data-name="Path 115" d="M376.426,460l7.281.857a1.486,1.486,0,0,1,1.278,1.158l1.158,5.3,7.218,8.5a17.822,17.822,0,0,1,1.62,10.367c-.972,5.508-1.4,9.6-1.4,9.6s-19.362,7.259-20.01,6.287-.858-5.387-.858-5.387l-2.592-28.834s2.916-4.859,4.536-4.859C375.7,462.949,375.568,460.6,376.426,460Z" transform="translate(-305.234 -350.48)" fill="#6ebccc"/>
    <ellipse id="Ellipse_12" data-name="Ellipse 12" cx="1.849" cy="2.218" rx="1.849" ry="2.218" transform="translate(86.695 142.634)" fill="#6ebccc"/>
    <path id="Path_116" data-name="Path 116" d="M564.693,806.432l5.627-2.82,1.061,2.474,7.116,1.438a1.681,1.681,0,0,1,.329,3.194l-6.875,2.947-2.234-1.939.586,2.646-2.592,1.111Z" transform="translate(-447.553 -601.817)" fill="#2f2e41"/>
    <path id="Path_117" data-name="Path 117" d="M585.2,743.795l5.577-2.919,1.1,2.455,7.14,1.313a1.682,1.682,0,0,1,.386,3.187l-6.822,3.067L590.32,749l.633,2.635-2.572,1.157Z" transform="translate(-462.556 -555.929)" fill="#2f2e41"/>
    <path id="Path_118" data-name="Path 118" d="M377.919,384.3a10.162,10.162,0,0,1-5.861-1.849l-.057-.04v-.07a7.662,7.662,0,0,1,7.654-7.654h3.223a7.662,7.662,0,0,1,7.654,7.654,1.782,1.782,0,0,1-1.743,1.773L378.1,384.3Z" transform="translate(-306.608 -288.078)" fill="#2f2e41"/>
    <ellipse id="Ellipse_13" data-name="Ellipse 13" cx="2.148" cy="2.954" rx="2.148" ry="2.954" transform="translate(79.644 88.749) rotate(-30)" fill="#2f2e41"/>
    <ellipse id="Ellipse_14" data-name="Ellipse 14" cx="2.954" cy="2.148" rx="2.954" ry="2.148" transform="translate(63.261 90.265) rotate(-45)" fill="#2f2e41"/>
    <path id="Path_119" data-name="Path 119" d="M614.647,662.185h-7.926a1.227,1.227,0,0,0-.94.434,1.88,1.88,0,1,0,.485,3.538l.657,2.136a1.238,1.238,0,0,0,1.184.874h5.153a1.238,1.238,0,0,0,1.184-.874l1.386-4.505a1.239,1.239,0,0,0-1.184-1.6Zm-9.2,3.625a1.343,1.343,0,0,1,0-2.685c.024,0,.047.006.072.007a1.226,1.226,0,0,0,.019.656l.567,1.844a1.327,1.327,0,0,1-.658.179Z" transform="translate(-475.984 -498.37)" fill="#3f3d56"/>
    <path id="Path_120" data-name="Path 120" d="M430.026,580.873a3.718,3.718,0,0,1-4.047-4.015l-26.436-14.167,5.782-3.7,24.941,14.464a3.738,3.738,0,0,1-.24,7.42Z" transform="translate(-326.755 -422.887)" fill="#ffb6b6"/>
    <path id="Path_121" data-name="Path 121" d="M367.708,475.779s-4.717-.591-5.928,4.716,7.089,20.1,8.355,22.524,18.525,7.727,18.525,7.727l6.646-3.471-14.881-9.431Z" transform="translate(-299.044 -362.009)" fill="#6ebccc"/>
    <path id="Path_122" data-name="Path 122" d="M371.454,342h1.611a2.954,2.954,0,0,1,2.954,2.954H368.5A2.954,2.954,0,0,1,371.454,342Z" transform="translate(-269.54 -250.156)" fill="#ccc"/>
    <circle id="Ellipse_15" data-name="Ellipse 15" cx="15.963" cy="15.963" r="15.963" transform="translate(34.858 4.802)" fill="#ff6584"/>
    <path id="Path_123" data-name="Path 123" d="M358.183,93.618c-4.225-4.432-9.131-8.475-14.939-10.611a24.012,24.012,0,0,0-5-1.257c-.014,0-.027,0-.04,0a.739.739,0,0,0-.084-.017,19.262,19.262,0,0,0-7.149.432,19.752,19.752,0,0,0-3.329,1.16,29.108,29.108,0,0,0-3.124,1.77,20.317,20.317,0,0,1-6.9,2.575,23.219,23.219,0,0,1-3.707.364,8.955,8.955,0,0,0-3.119.449,7.486,7.486,0,0,0-4.559,4.936.485.485,0,0,0,.216.53c.277.2.546.423.837.6a2.61,2.61,0,0,0,.817.223q.693.146,1.388.284,2.559.507,5.139.9,5.221.79,10.5,1.114a116.9,116.9,0,0,0,21.131-.635A117.3,117.3,0,0,0,357.976,94.4a.474.474,0,0,0,.207-.785Z" transform="translate(-258.487 -73.686)" fill="#e6e6e6"/>
    <path id="Path_124" data-name="Path 124" d="M219.7,162.264a24.012,24.012,0,0,0-5-1.257c-.014,0-.027,0-.04,0a.734.734,0,0,0-.084-.017,19.262,19.262,0,0,0-7.149.432,19.75,19.75,0,0,0-3.329,1.16,29.106,29.106,0,0,0-3.124,1.77,20.316,20.316,0,0,1-6.9,2.575,23.22,23.22,0,0,1-3.707.364,8.955,8.955,0,0,0-3.119.449,7.486,7.486,0,0,0-4.559,4.936.485.485,0,0,0,.216.53c.277.2.546.423.837.6a2.61,2.61,0,0,0,.817.223q.693.146,1.388.284,2.559.507,5.139.9,5.221.79,10.5,1.114a117.093,117.093,0,0,0,32.855-2.663.474.474,0,0,0,.207-.785C230.413,168.443,225.507,164.4,219.7,162.264Z" transform="translate(-168.12 -131.658)" fill="#e6e6e6"/>
    <path id="Path_125" data-name="Path 125" d="M560.905,513.175l-12.276-16.127-9.686,5.477L559.469,526.9Z" transform="translate(-394.21 -363.566)" fill="#3f3d56"/>
    <path id="Path_126" data-name="Path 126" d="M758.869,412.056a88.438,88.438,0,0,0,3.121,19.983q-.58,1.366-1.2,2.712a101.693,101.693,0,0,1-5.226,9.92A103.538,103.538,0,0,1,735.6,468.8q-1.273,1.132-2.581,2.226a48.374,48.374,0,0,1-8.714-22.2c-.134-.988-.244-1.987-.328-2.981v-.005a63.59,63.59,0,0,1-.2-7.262c0-.193.008-.389.016-.585.094-2.589.328-5.183.679-7.753v0c.04-.3.081-.591.126-.886.129-.886.274-1.772.432-2.653a107.471,107.471,0,0,1,3.851-14.982v0c.046-.142.091-.282.142-.422.177-.532.357-1.058.543-1.584a.924.924,0,0,1,.043-.121q.358-1.031.733-2.046.1-.282.209-.564c.282-.755.569-1.5.862-2.242.091-.236.185-.473.279-.706.073-.18.142-.36.218-.537v0q.641-1.583,1.3-3.1c1.227-2.852,2.49-5.535,3.719-8.008l0,0a147.147,147.147,0,0,1,9.746-16.889l17.426,5.64c-2.079,3.687-3.687,9.125-4.568,15.541a86.748,86.748,0,0,0-.669,15.388Z" transform="translate(-563.897 -288.663)" fill="#3f3d56"/>
    <path id="Path_127" data-name="Path 127" d="M649.862,484.288c-.1-.239-.217-.473-.336-.706a13.226,13.226,0,0,0-2.339-3.223c-.14-.142-.285-.285-.435-.419a13.083,13.083,0,0,0-12.214-3.024l-.011.005-.081.021.019.091a7.6,7.6,0,0,0,.349,1.249c.04.11.086.215.132.32.019.048.043.091.064.14,0,0,0,0,0,0s0,.005,0,.008c.051.1.1.2.153.3-.11-.1-.215-.212-.317-.322s-.191-.209-.282-.317a8.911,8.911,0,0,1-.846-1.165l-.043-.073-.075.03a13.19,13.19,0,0,0-2.879,1.41l-.1.064a5.855,5.855,0,0,1-4.7.768,9.323,9.323,0,0,0-7.409,1.211,9.21,9.21,0,0,0-1.928,1.681l-.145.172c-.1.124-.2.25-.293.379a9.2,9.2,0,0,0-1.791,4.627l-.005.062.051.035a7.979,7.979,0,0,0,3.018,1.257,9.032,9.032,0,0,1-2.052.051h0a8.322,8.322,0,0,1-.924-.129l-.056-.011h0l-.07-.013.011.129a9.239,9.239,0,0,0,1.5,4.606l.027.038a.381.381,0,0,1,.027.043,9.675,9.675,0,0,1,.945,1.856,8.841,8.841,0,0,1,.4,5.078,9.266,9.266,0,0,0,8.344,11.314c.223.019.448.029.674.029a9.258,9.258,0,0,0,3.752-.781l.043-.016.011-.048a9.086,9.086,0,0,1,.951-2.089,6.337,6.337,0,0,0-.2,1.576v.177l.153-.089c.132-.078.266-.161.387-.239a9.461,9.461,0,0,0,1.952-1.7c.223-.258.448-.508.685-.757l0,0c.459-.489.945-.967,1.45-1.423a27.113,27.113,0,0,1,3.438-2.624,29.62,29.62,0,0,1,3.795-2.062h0c.148-.07.3-.137.446-.2a13.1,13.1,0,0,0,1.883-1.01c.021-.013.04-.024.059-.038a13.1,13.1,0,0,0,4.813-16.247Z" transform="translate(-483.852 -362.536)" fill="#6ebccc"/>
    <path id="Path_128" data-name="Path 128" d="M625.134,567.542a9.253,9.253,0,0,0-.166.989,9.378,9.378,0,0,1-.21-4.881c.056-.247.1-.5.131-.749A8.8,8.8,0,0,1,625.134,567.542Z" transform="translate(-491.321 -425.748)" opacity="0.15"/>
    <path id="Path_129" data-name="Path 129" d="M619.532,533.513a9.036,9.036,0,0,1-2.4.011,9.275,9.275,0,0,1-.539-1.221A7.87,7.87,0,0,0,619.532,533.513Z" transform="translate(-485.517 -403.368)" opacity="0.15"/>
    <path id="Path_130" data-name="Path 130" d="M615.593,522.086a9.333,9.333,0,0,0-.58,2.338,9.223,9.223,0,0,1-.43-2.355l-.007-.129.127.025a8.945,8.945,0,0,0,.89.121Z" transform="translate(-484.04 -395.788)" opacity="0.15"/>
    <path id="Path_131" data-name="Path 131" d="M618.87,480.361a9.3,9.3,0,0,1,7.405-1.213,5.845,5.845,0,0,0,4.7-.767l.1-.064a13.151,13.151,0,0,1,2.877-1.413l.077-.027.042.07a8.894,8.894,0,0,0,1.444,1.806,6.819,6.819,0,0,1-.7-2.017l-.018-.093.092-.024A13.084,13.084,0,0,1,651.3,489.966a13.086,13.086,0,0,0-16.036-9.455l-.092.024.018.093a6.821,6.821,0,0,0,.7,2.017,8.9,8.9,0,0,1-1.444-1.806l-.042-.07-.077.027a13.147,13.147,0,0,0-2.877,1.413l-.1.064a5.845,5.845,0,0,1-4.7.767,9.28,9.28,0,0,0-10.688,4.948,11.242,11.242,0,0,1-1.207-.674l-.053-.033.006-.062A9.243,9.243,0,0,1,618.87,480.361Z" transform="translate(-484.134 -362.319)" opacity="0.15"/>
    <path id="Path_132" data-name="Path 132" d="M703.655,149.435l-.255-.169-.185.242a21.975,21.975,0,0,0-3.381,5.986,28.669,28.669,0,0,1,1.294-7.329l.081-.25-.231-.132a42.35,42.35,0,0,0-9.534-3.953l-.362-.1a18.815,18.815,0,0,1-11.857-9.743A29.908,29.908,0,0,0,649.3,117.746h0c-.064.005-.132.013-.2.021-.11.011-.218.024-.325.038-.22.03-.435.059-.65.091-.183.027-.368.056-.551.089-.1.013-.191.03-.285.048s-.191.032-.285.051h0a29.609,29.609,0,0,0-5.28,1.517h0v0l-.432.169q-.669.274-1.327.58c-.1.046-.2.094-.3.14-.027.013-.056.027-.083.043-.282.134-.561.274-.838.422-.04.019-.081.04-.121.062l-.258.137q-.85.459-1.67.975c-.046.027-.089.054-.134.083l-.148.1c-.03.016-.059.038-.089.056-.083.051-.164.1-.244.161-.161.1-.322.212-.481.322s-.325.226-.486.341l-.161.115.03.2c.027.164.051.328.081.489s.054.32.083.478c.046.266.1.529.148.784.035.169.067.336.1.5s.073.338.113.508c.078.349.161.687.25,1.02.043.166.089.333.137.5.027.1.054.2.083.3l.065.2c.005.021.011.046.019.07a.619.619,0,0,0,.021.067q.044.149.089.29c.016.051.032.1.051.15.038.115.078.234.118.346.043.129.089.258.134.384.011.032.021.062.032.094s.016.048.027.072l.032.083c.046.121.091.244.14.365.016.043.032.089.051.132a19.232,19.232,0,0,0,1.6,3.142q-1.043-.894-2.009-1.9a28.912,28.912,0,0,1-2.739-3.306c-.067-.091-.134-.185-.2-.279-.126-.18-.25-.36-.371-.542s-.252-.384-.373-.577c-.081-.129-.161-.26-.239-.389s-.15-.244-.22-.368l-.21-.36h0v0l-.3.29c-.118.115-.236.231-.352.346a29.844,29.844,0,0,0-7.592,13.065l-.04.148-.04.153c-.078.274-.156.54-.239.811v0c-.081.269-.167.537-.258.8s-.169.5-.26.744q-.044.125-.1.25c-.056.161-.118.32-.18.481l-.089.22c-.073.177-.145.354-.217.529-.011.027-.024.056-.038.083-.021.054-.046.107-.067.158-.056.129-.115.26-.172.389-.04.083-.078.169-.116.252-.016.038-.035.075-.051.113-.1.215-.2.427-.309.636-.121.247-.244.494-.376.736-.115.226-.236.446-.363.666-.218.389-.446.776-.682,1.152-.091.145-.183.29-.277.435-.021.035-.043.07-.064.1-.078.126-.158.247-.242.371-.056.083-.113.167-.169.247-.094.145-.193.285-.3.422-.027.043-.056.083-.086.124-.151.209-.3.414-.454.618-.005,0-.005.005-.008.008s-.005,0-.008.005c-.067.089-.134.177-.2.263-.091.126-.191.25-.29.371-.161.2-.33.411-.5.612-.005.005-.008.011-.013.013a28.607,28.607,0,0,1-2.884,2.933c-.019.016-.032.032-.051.046-.145.126-.29.252-.44.376l-.185.153c-.1.086-.207.172-.309.25a.214.214,0,0,1-.04.032c-.091.075-.18.145-.271.215-.11.089-.22.172-.333.255q-.8.6-1.638,1.141c-.083.056-.172.113-.258.166-.051.032-.1.064-.15.091-.2.126-.408.25-.612.368s-.414.236-.62.349c-.443.242-.881.494-1.308.757-.215.134-.43.269-.642.406q-1.265.822-2.436,1.759a29.741,29.741,0,0,0-2.242,1.99q-.133.129-.266.266c-.177.175-.349.352-.513.529-.263.271-.516.551-.765.833a30.18,30.18,0,0,0-3.48,4.839,28.453,28.453,0,0,0-1.364,2.656c-.309.679-.591,1.375-.846,2.079q-.254.7-.475,1.423c-.073.239-.142.481-.209.722-.228.819-.419,1.646-.575,2.476q-.189,1-.306,2c-.04.336-.073.671-.1,1q-.1,1.228-.106,2.458a29.892,29.892,0,0,0,.89,7.3q.2.79.438,1.571c.081.26.167.518.252.776q.326.967.722,1.915.238.568.5,1.128a29.977,29.977,0,0,0,4.211,6.6q.415.5.857.975s0,0,0,0a29.8,29.8,0,0,0,2.318,2.267h0q.487.431.991.835s0,0,0,0c.338.274.679.537,1.029.792q.262.189.532.379.528.375,1.077.722h0q.548.354,1.112.677c.755.432,1.528.838,2.323,1.206l.134.062.137-.062a29.394,29.394,0,0,1,3.932-1.442c.3-.086.594-.164.889-.239q1.12-.278,2.256-.467a18.547,18.547,0,0,0-2.132,1.254c-.529.357-1.05.747-1.574,1.176-.174.142-.349.29-.524.44l-.435.376.545.18c.2.064.4.129.6.188.271.086.54.164.8.236q.862.242,1.735.427l.424.089c.277.054.556.107.835.156a.184.184,0,0,0,.035.005c.29.048.583.094.873.134q.81.117,1.619.185c.059.008.118.011.18.013.132.011.26.021.392.03.29.019.583.032.875.043l.062,0c.148.005.3.011.443.013,0,0,0,0,0,0,.148,0,.3.005.443.005h.816l.462,0c.215,0,.432,0,.647.005l.175,0c.344.005.687.013,1.031.021l.064,0c.344.011.687.021,1.031.038.075,0,.15.005.228.011q.5.02.991.048l.287.019c.25.013.5.03.752.048.148.008.293.019.44.032.6.046,1.19.1,1.786.156.2.016.4.038.6.059q.8.085,1.6.185c.239.027.478.059.717.091.027,0,.054.005.081.011.3.04.588.081.884.124.193.027.387.056.58.086s.4.059.6.094c.107.016.215.035.325.054.258.04.518.083.779.132a.626.626,0,0,1,.07.011c.553.1,1.109.2,1.662.309.325.062.647.126.969.193.252.051.5.1.757.158.043.008.086.019.129.03a.139.139,0,0,0,.03.005c.381.083.765.169,1.147.26q1.986.459,3.966,1.021c.3.083.607.172.91.26l.381.113c.263.078.524.156.787.239.231.07.465.142.7.218.145.046.29.091.435.14.226.07.451.142.674.22.191.059.379.121.567.188.269.089.54.18.808.277.078.027.158.054.236.083.328.113.655.228.983.349s.639.234.956.352c.22.083.44.164.658.25.244.094.489.188.73.285.349.137.7.277,1.05.419.322.129.642.26.964.4.059.024.121.048.18.075.279.115.559.236.835.357.18.075.357.153.534.231q1.16.508,2.318,1.05h0c.483.228.975.446,1.469.653.115.048.231.1.349.142.2.083.395.161.594.242.129.051.258.1.389.15.191.075.384.148.577.218s.406.15.612.22c.073.027.145.051.22.078.239.081.478.161.72.239l.075.024c.253.081.5.161.76.236a.532.532,0,0,0,.062.019c.274.083.553.164.83.242.408.113.819.22,1.23.32.075.019.15.038.226.054.22.054.438.1.658.153s.47.1.7.15.473.1.706.14c.126.024.252.048.376.07l.33.056c.228.04.457.075.688.113a.052.052,0,0,1,.019,0c.261.04.518.078.779.11s.5.064.749.094l.159.016c.207.024.414.048.62.067l.177.016c.2.019.408.038.612.051a.962.962,0,0,0,.124.008c.183.016.365.03.548.038.129.011.255.016.384.024l.2.008c.177.011.354.016.534.021.218.008.435.013.65.019.26.005.524.008.784.008h.005c.255,0,.513,0,.768-.008h.1l.282-.008c.145,0,.29-.008.432-.013.274-.011.545-.024.816-.04l.325-.019.148-.011c.169-.011.336-.021.5-.035s.352-.03.526-.048c.226-.021.451-.046.677-.07.177-.019.354-.04.529-.062a.55.55,0,0,0,.07-.011c.169-.019.338-.04.5-.064.2-.027.395-.056.591-.086l.062-.008c.339-.054.68-.107,1.021-.169.357-.064.714-.134,1.069-.207.132-.027.26-.056.392-.083.073-.016.148-.03.218-.046.11-.024.218-.048.325-.075l.059-.011c.15-.032.3-.07.448-.107.3-.073.6-.148.892-.228.132-.032.263-.067.389-.1l.11-.032q.818-.23,1.622-.486c.236-.075.47-.153.7-.236q.753-.258,1.493-.542c.132-.048.263-.1.395-.153l.577-.234c.172-.073.344-.145.518-.22.086-.035.172-.073.258-.11.258-.113.516-.228.771-.344.172-.081.341-.158.51-.239.269-.129.534-.261.8-.392.067-.035.132-.07.2-.1.169-.086.338-.175.51-.26.271-.145.542-.29.811-.44.091-.048.18-.1.271-.15q.443-.25.878-.508.963-.576,1.9-1.2c.156-.1.312-.209.465-.314.29-.2.575-.4.859-.607.03-.021.056-.043.086-.062.142-.1.285-.209.427-.317.3-.223.588-.448.881-.679.005,0,.013-.011.021-.016.132-.1.263-.209.392-.314.4-.325.795-.655,1.182-1,.191-.164.379-.333.564-.5.14-.126.279-.252.416-.381.277-.261.548-.518.816-.782.134-.129.266-.263.4-.4s.266-.269.4-.406c.046-.046.091-.094.137-.142l.4-.43c.116-.124.228-.252.344-.381.193-.215.389-.43.58-.647a.412.412,0,0,1,.032-.035c.011-.013.021-.024.029-.035h0a42.144,42.144,0,0,0-8.4-62.564Z" transform="translate(-469.082 -100.012)" fill="#6ebccc"/>
    <g id="Group_13" data-name="Group 13" transform="translate(125.039 17.732)" opacity="0.15">
      <path id="Path_133" data-name="Path 133" d="M793.329,118.217a21.109,21.109,0,0,0,2.392,5.457,29.052,29.052,0,0,1-4.684-5.116Q792.175,118.343,793.329,118.217Z" transform="translate(-738.152 -118.217)"/>
      <path id="Path_134" data-name="Path 134" d="M686.905,169.78a30,30,0,0,0-5.54,3.894,30.54,30.54,0,0,0,6.125-11.615l.042-.154.04-.145a29.858,29.858,0,0,1,7.942-13.415l.3-.29.21.359a29.19,29.19,0,0,0,4.141,5.456A29.1,29.1,0,0,1,686.905,169.78Z" transform="translate(-657.933 -140.042)"/>
      <path id="Path_135" data-name="Path 135" d="M748.295,134.72l-.04.145-.043.154c-.078.283-.162.563-.248.842a31.11,31.11,0,0,1-1.778-6.826l-.031-.2.163-.116a30.121,30.121,0,0,1,6.607-3.591A29.921,29.921,0,0,0,748.295,134.72Z" transform="translate(-705.323 -123.274)"/>
      <path id="Path_136" data-name="Path 136" d="M609.751,257.82a27.014,27.014,0,0,0,4.909-3.446A29.849,29.849,0,0,0,624.7,300.881l.136.063.135-.061a28.64,28.64,0,0,1,7.078-2.149,20.46,20.46,0,0,0-4.23,2.872l-.434.376.545.18c.47.156.941.3,1.4.426a30.136,30.136,0,0,0,8.256,1.1,87.858,87.858,0,0,1,37.968,8.71,42.657,42.657,0,0,0,6.657,2.46,41.968,41.968,0,0,0,29.837-2.8,42.2,42.2,0,0,1-43.168,13.071,42.652,42.652,0,0,1-6.657-2.46,87.858,87.858,0,0,0-37.968-8.71,30.139,30.139,0,0,1-8.256-1.1c-.457-.127-.928-.27-1.4-.426l-.545-.18.434-.376a20.456,20.456,0,0,1,4.23-2.872,28.635,28.635,0,0,0-7.078,2.149l-.135.061-.136-.063a29.863,29.863,0,0,1-1.62-53.333Z" transform="translate(-594.109 -217.809)"/>
    </g>
  </g>
</svg>
